<svg width="116" height="36" viewBox="0 0 116 36" fill="none" xmlns="http://www.w3.org/2000/svg">
<path fill-rule="evenodd" clip-rule="evenodd" d="M61.162 9.02894C61.162 10.3023 60.1153 11.4019 58.7778 11.4019C57.4403 11.4019 56.3936 10.3601 56.3936 9.02894C56.3936 7.69775 57.3821 6.65595 58.7778 6.65595C60.1734 6.7717 61.162 7.81351 61.162 9.02894ZM51.4507 13.7749C51.4507 14.0064 51.4507 14.3537 51.4507 14.3537C51.4507 14.3537 50.3458 12.9068 47.9615 12.9068C44.0072 12.9068 40.9252 15.9164 40.9252 20.0257C40.9252 24.135 43.9491 27.1447 47.9615 27.1447C50.4039 27.1447 51.4507 25.6399 51.4507 25.6399V26.2765C51.4507 26.5659 51.6833 26.7974 51.974 26.7974H54.8816V13.254C54.8816 13.254 52.2066 13.254 51.974 13.254C51.6833 13.254 51.4507 13.5434 51.4507 13.7749ZM51.4507 22.4566C50.9273 23.2669 49.8224 23.9614 48.5431 23.9614C46.217 23.9614 44.4724 22.5145 44.4724 20.0836C44.4724 17.6527 46.2751 16.2058 48.5431 16.2058C49.8224 16.2058 50.9854 16.9003 51.4507 17.7106V22.4566ZM57.0914 13.254H60.5805V26.7974H57.0914V13.254ZM109.021 12.9068C106.637 12.9068 105.532 14.3537 105.532 14.3537V6.7717H102.043V26.8553C102.043 26.8553 104.718 26.8553 104.95 26.8553C105.241 26.8553 105.474 26.6238 105.474 26.3344V25.6977C105.474 25.6977 106.579 27.2026 108.963 27.2026C112.917 27.2026 115.999 24.1929 115.999 20.0836C116.057 15.9164 112.975 12.9068 109.021 12.9068ZM108.439 23.9035C107.102 23.9035 106.055 23.209 105.532 22.3987V17.537C106.055 16.8424 107.218 16.0322 108.439 16.0322C110.766 16.0322 112.51 17.4791 112.51 19.91C112.51 22.3408 110.766 23.9035 108.439 23.9035ZM100.24 18.8103V26.9132H96.7509V19.2154C96.7509 16.9582 96.0531 16.09 94.0759 16.09C93.0292 16.09 91.9243 16.6109 91.2265 17.4212V26.8553H87.7374V13.254H90.4705C90.7613 13.254 90.9939 13.4855 90.9939 13.7749V14.3537C91.9825 13.3119 93.3781 12.9068 94.7156 12.9068C96.2276 12.9068 97.5069 13.3119 98.4955 14.1801C99.7748 15.2219 100.24 16.4952 100.24 18.8103ZM79.3054 12.9068C76.9212 12.9068 75.8163 14.3537 75.8163 14.3537V6.7717H72.3272V26.8553C72.3272 26.8553 75.0022 26.8553 75.2348 26.8553C75.5255 26.8553 75.7581 26.6238 75.7581 26.3344V25.6977C75.7581 25.6977 76.863 27.2026 79.2472 27.2026C83.2016 27.2026 86.2836 24.1929 86.2836 20.0836C86.3418 15.9164 83.2597 12.9068 79.3054 12.9068ZM78.7239 23.9035C77.3864 23.9035 76.3396 23.209 75.8163 22.3987V17.537C76.3396 16.8424 77.5027 16.0322 78.7239 16.0322C81.0499 16.0322 82.7945 17.4791 82.7945 19.91C82.7945 22.3408 81.0499 23.9035 78.7239 23.9035ZM69.3033 12.9068C70.35 12.9068 70.8734 13.0804 70.8734 13.0804V16.2637C70.8734 16.2637 67.9658 15.2797 66.1631 17.3633V26.8553H62.674V13.254C62.674 13.254 65.3489 13.254 65.5816 13.254C65.8723 13.254 66.1049 13.4855 66.1049 13.7749V14.3537C66.8027 13.6013 68.2565 12.9068 69.3033 12.9068ZM33.191 25.6399C33.0165 25.2347 32.8421 24.7138 32.6676 24.3666C32.3769 23.7299 32.0861 23.0932 31.8535 22.5145L31.7953 22.4566C29.2948 17.074 26.6198 11.5756 23.7704 6.13505L23.6541 5.90354C23.3633 5.38264 23.0726 4.80386 22.7818 4.22508C22.4329 3.58842 22.084 2.89389 21.5025 2.25723C20.3394 0.81029 18.653 0 16.9085 0C15.1058 0 13.4775 0.810289 12.2563 2.14148C11.6748 2.83601 11.2677 3.47267 10.9188 4.1672C10.6281 4.74598 10.3373 5.32476 10.0465 5.84566L9.93024 6.07717C7.13895 11.4598 4.40582 16.9582 1.90529 22.3987L1.84714 22.4566C1.61453 23.0354 1.32377 23.672 1.03301 24.3087C0.858556 24.7138 0.684101 25.119 0.509645 25.582C0.0444307 26.9132 -0.130025 28.1865 0.102583 29.4598C0.509645 32.1801 2.31235 34.4373 4.81288 35.4212C5.74331 35.8264 6.73189 36 7.72047 36C8.01123 36 8.36014 35.9421 8.6509 35.9421C9.87209 35.8264 11.0933 35.4212 12.2563 34.7267C13.7683 33.9164 15.1639 32.701 16.734 30.9646C18.3041 32.701 19.7579 33.8585 21.2117 34.7267C22.4329 35.4212 23.6541 35.8264 24.8171 35.9421C25.1079 36 25.4568 36 25.7475 36C26.7361 36 27.7829 35.8264 28.6551 35.4212C31.2138 34.4373 32.9584 32.1222 33.3654 29.4598C33.7725 28.1865 33.6562 26.9711 33.191 25.6399ZM16.8503 27.492C14.8731 25.0611 13.652 22.746 13.1867 20.7781C13.0123 19.9678 12.9541 19.2154 13.0704 18.5788C13.1286 18 13.3612 17.4791 13.652 17.074C14.3498 16.09 15.5128 15.5113 16.8503 15.5113C18.1878 15.5113 19.409 16.09 20.0487 17.074C20.3394 17.4791 20.572 18 20.6302 18.5788C20.7465 19.2154 20.6883 19.9678 20.5139 20.7781C20.0487 22.6881 18.7693 25.0032 16.8503 27.492ZM31.272 29.1704C31.0394 31.0225 29.76 32.6431 27.9573 33.3955C27.085 33.7428 26.1546 33.8585 25.2242 33.7428C24.2937 33.627 23.4215 33.3376 22.491 32.8167C21.2117 32.1222 19.8742 30.9646 18.3623 29.3441C20.7465 26.4502 22.2003 23.7299 22.7236 21.3569C22.9563 20.2572 23.0144 19.2154 22.8981 18.2894C22.7818 17.3633 22.4329 16.5531 21.9095 15.8585C20.8046 14.2379 18.8856 13.3119 16.7922 13.3119C14.6987 13.3119 12.7797 14.2958 11.6748 15.8585C11.1514 16.5531 10.8607 17.4212 10.6862 18.2894C10.5699 19.2154 10.5699 20.2572 10.8607 21.3569C11.384 23.7299 12.896 26.4502 15.2221 29.3441C13.7101 31.0225 12.3726 32.1222 11.0933 32.8167C10.1629 33.3376 9.23242 33.627 8.36014 33.7428C7.37156 33.8585 6.44113 33.6849 5.62701 33.3955C3.8243 32.701 2.60311 31.0225 2.31235 29.1704C2.19605 28.2444 2.2542 27.3762 2.66126 26.3344C2.77757 25.9871 2.95202 25.6399 3.12648 25.1768C3.35909 24.5981 3.64984 23.9614 3.9406 23.3826L3.99876 23.3248C6.49928 17.9421 9.17427 12.4437 11.9656 7.11897L12.0819 6.88746C12.3726 6.36656 12.6634 5.78778 12.9541 5.209C13.2449 4.63023 13.5938 4.10932 13.9427 3.6463C14.6987 2.77814 15.7454 2.31511 16.8503 2.31511C17.9552 2.31511 19.0019 2.77814 19.7579 3.6463C20.165 4.10932 20.4557 4.63023 20.7465 5.209C21.0372 5.7299 21.328 6.30868 21.6188 6.88746L21.7351 7.11897C24.4682 12.5016 27.1432 18 29.6437 23.3248V23.3826C29.9345 23.9614 30.1671 24.5981 30.4578 25.1768C30.6323 25.582 30.8068 25.9871 30.9231 26.3344C31.3301 27.3183 31.4464 28.2444 31.272 29.1704Z" fill="#2E3E5C"/>
</svg>
