<svg width="119" height="37" viewBox="0 0 119 37" fill="none" xmlns="http://www.w3.org/2000/svg">
<path fill-rule="evenodd" clip-rule="evenodd" d="M17.4834 17.9828C17.3934 17.8525 17.3023 17.7266 17.2121 17.602C16.6487 16.8239 16.1203 16.0941 16.1203 14.6189V8.89426C16.1203 8.69084 16.1216 8.48909 16.1228 8.28915V8.28906C16.1364 6.11073 16.1486 4.14708 14.5201 2.57951C13.0978 1.22213 10.7864 0.75 9.00846 0.75C5.5118 0.75 1.60029 2.04836 0.770572 6.35656C0.711306 6.82869 1.00763 7.06475 1.30396 7.12377L4.85988 7.47787C5.21548 7.47787 5.45254 7.12377 5.5118 6.82869C5.80813 5.35328 7.0527 4.64508 8.47507 4.64508C9.24553 4.64508 10.0752 4.94016 10.5494 5.58934C11.0016 6.2398 10.9852 7.05994 10.9697 7.83397V7.83399C10.967 7.97292 10.9642 8.11037 10.9642 8.24508V8.71721C10.672 8.74954 10.3676 8.78076 10.0548 8.81285C8.08329 9.01505 5.77735 9.25156 4.08943 10.0156C1.77808 11.0189 0.118652 13.0254 0.118652 16.0352C0.118652 19.8123 2.54853 21.7598 5.63034 21.7598C8.23801 21.7598 9.66038 21.1697 11.6754 19.1041C11.7588 19.2249 11.8354 19.3379 11.9081 19.4453C12.4044 20.1778 12.7236 20.6488 13.809 21.5238C14.1053 21.6418 14.4609 21.6418 14.6979 21.4648C15.4091 20.8156 16.7722 19.6352 17.4834 19.0451C17.7797 18.75 17.7205 18.3369 17.4834 17.9828ZM10.253 16.3893C9.66038 17.3926 8.7714 18.0418 7.70462 18.0418C6.28225 18.0418 5.45254 16.9795 5.45254 15.3861C5.45254 12.2582 8.23801 11.727 10.905 11.727V12.4943L10.907 12.544C10.9655 13.9383 11.0145 15.1062 10.253 16.3893ZM58.1783 8.87187C58.4911 8.83978 58.7955 8.80856 59.0877 8.77623L59.2063 8.36311C59.2063 8.28339 59.2067 8.20271 59.2072 8.12134V8.12116C59.2121 7.29895 59.2175 6.40545 58.7321 5.70738C58.258 5.0582 57.4283 4.76311 56.6579 4.76311C55.2355 4.76311 53.9909 5.47131 53.6946 6.94672C53.6353 7.2418 53.3983 7.5959 53.0427 7.5959L49.4867 7.2418C49.1904 7.18279 48.8941 6.94672 48.9534 6.47459C49.7831 2.16639 53.6946 0.868033 57.1912 0.868033C58.9692 0.868033 61.2806 1.34016 62.7029 2.69754C64.3314 4.26511 64.3192 6.22876 64.3056 8.4071L64.3056 8.40899C64.3043 8.60834 64.3031 8.80949 64.3031 9.01229V14.7369C64.3031 16.2121 64.8315 16.942 65.3949 17.7201L65.3951 17.7203C65.4852 17.8448 65.5763 17.9706 65.6662 18.1008C65.9033 18.3959 65.9625 18.809 65.6662 19.0451C64.955 19.6352 63.5919 20.8156 62.8807 21.4648C62.6437 21.6418 62.2881 21.6418 61.9917 21.5238C60.9063 20.6488 60.5872 20.1778 60.0909 19.4453C60.0181 19.3379 59.9416 19.2249 59.8582 19.1041C57.8432 21.1697 56.4208 21.7598 53.8131 21.7598C50.7313 21.7598 48.3014 19.8123 48.3014 16.0352C48.3014 13.0844 49.9016 11.0779 52.2129 10.0746C53.9009 9.31058 56.2068 9.07407 58.1783 8.87187ZM55.8874 18.0418C56.8949 18.0418 57.8432 17.3926 58.4358 16.3893C59.0956 15.1847 59.0923 14.0817 59.0883 12.7975V12.7971V12.7966C59.088 12.697 59.0877 12.5962 59.0877 12.4943V11.727C56.4208 11.727 53.6353 12.2582 53.6353 15.3861C53.6353 16.9795 54.465 18.0418 55.8874 18.0418ZM24.7138 21.4648H21.0393C20.6837 21.4057 20.3874 21.1697 20.3282 20.8156V1.98934C20.3282 1.63525 20.6245 1.34016 21.0393 1.34016H24.4767C24.8323 1.39918 25.1287 1.63525 25.1287 1.98934V4.46803H25.1879C26.1362 2.10738 27.7956 0.986066 30.0477 0.986066C32.2998 0.986066 33.7814 2.10738 34.7889 4.46803C35.6779 2.10738 37.6929 0.986066 39.8857 0.986066C41.4266 0.986066 43.1453 1.63525 44.1528 3.05164C45.1706 4.41986 45.1397 6.31022 45.1106 8.08757V8.08767V8.08777V8.08787V8.08797C45.1058 8.38041 45.1011 8.66979 45.1011 8.95328V20.8156C45.1011 21.1697 44.8048 21.4648 44.3899 21.4648H40.7155C40.3599 21.4648 40.0635 21.1697 40.0635 20.8156V10.8418C40.0635 10.6969 40.0654 10.5175 40.0674 10.316C40.077 9.36872 40.0916 7.93347 39.945 7.30082C39.7079 6.06148 38.8782 5.70738 37.8115 5.70738C36.9225 5.70738 35.9742 6.29754 35.6186 7.2418C35.2481 8.0852 35.2558 9.44651 35.2617 10.4847C35.2624 10.6088 35.263 10.7283 35.263 10.8418V20.8156C35.263 21.1697 34.9667 21.4648 34.5519 21.4648H30.8774C30.5218 21.4648 30.2255 21.1697 30.2255 20.8156V10.8418C30.2255 10.6199 30.2294 10.3877 30.2333 10.1497V10.1496V10.1496V10.1495V10.1494C30.2674 8.10934 30.3086 5.64836 27.9734 5.64836C25.414 5.64836 25.4199 8.42039 25.4246 10.5739C25.4248 10.6644 25.425 10.7538 25.425 10.8418V20.8156C25.425 21.1697 25.1287 21.4648 24.7138 21.4648ZM81.9049 16.3893C79.7714 15.209 77.3415 14.8549 75.0301 14.9139L81.3123 6.00246C81.9049 5.17623 82.2012 4.7041 82.2012 4.29098V1.98934C82.2012 1.57623 81.9049 1.34016 81.4901 1.34016H69.3999C69.0443 1.34016 68.748 1.63525 68.748 1.98934V4.64508C68.748 5.0582 69.0443 5.29426 69.4592 5.29426H75.7413L68.5109 15.6221C68.0961 16.2713 68.0961 17.0385 68.0961 17.4516V20.1664C68.0961 20.5795 68.5109 20.9926 68.9258 20.7566C73.0151 18.573 77.9341 18.809 81.6679 20.7566C82.142 20.9926 82.5568 20.5205 82.5568 20.1664V17.2746C82.4976 17.0385 82.379 16.6254 81.9049 16.3893ZM68.5702 25.1238C67.859 25.1828 67.7998 24.5926 68.3924 24.1795C72.3039 21.4057 78.8231 22.232 79.5343 23.2352C80.3047 24.1205 79.2972 30.6123 75.6228 33.6811C75.0894 34.1533 74.556 33.9172 74.7931 33.268L74.8357 33.162L74.8357 33.1619C75.6856 31.047 77.5044 26.5214 76.6303 25.4189C75.7761 24.3415 71.1467 24.8441 68.8402 25.0945L68.5702 25.1238ZM48.9534 31.9107C56.5986 31.9107 65.0143 30.3172 72.7188 27.0713C73.9041 26.5402 74.8523 27.7795 73.667 28.7238C66.7922 33.7402 56.7764 36.4549 48.1829 36.4549C36.152 36.4549 25.3065 32.0287 17.0686 24.6516C16.4166 24.0615 17.0093 23.2352 17.7797 23.7074C26.6696 28.8418 37.6337 31.9107 48.9534 31.9107ZM84.3348 11.373C84.3348 5.53033 87.2388 0.986066 92.5727 0.986066C98.0251 0.986066 100.929 5.64836 100.988 11.55C100.988 17.2746 97.7288 21.8189 92.5727 21.8189C87.2388 21.8189 84.3348 17.1566 84.3348 11.373ZM89.7279 10.9183C89.7268 13.2709 89.7245 17.9828 92.5727 17.9828C95.4174 17.9828 95.536 14.0287 95.5952 11.609C95.5952 10.0746 95.536 8.12705 95.0618 6.65164C94.647 5.35328 93.8173 4.82213 92.632 4.82213C89.9057 4.82213 89.7279 8.48115 89.7279 10.7828L89.7279 10.9183ZM108.574 4.76311C109.582 2.22541 111.004 0.986066 113.553 0.986066C115.153 0.986066 116.753 1.57623 117.879 3.2877C118.827 4.76311 118.827 7.30082 118.827 9.13033V20.9336C118.768 21.2877 118.472 21.5238 118.116 21.5238H114.442C114.086 21.5238 113.849 21.2287 113.79 20.9336V10.7238C113.79 10.5655 113.791 10.4017 113.793 10.2341C113.81 8.21459 113.831 5.64836 111.478 5.64836C110.589 5.64836 109.76 6.23852 109.345 7.12377C108.811 8.24508 108.752 9.42541 108.752 10.6648V20.7566C108.752 21.1107 108.456 21.4057 108.041 21.4057H104.367C104.011 21.4057 103.715 21.1107 103.715 20.7566V1.98934C103.774 1.69426 104.07 1.39918 104.426 1.39918H107.804C108.1 1.39918 108.397 1.63525 108.456 1.93033V4.76311H108.574Z" fill="#2E3E5C"/>
</svg>
