<svg width="50" height="50" viewBox="0 0 50 50" fill="none" xmlns="http://www.w3.org/2000/svg">
<rect opacity="0.15" width="50" height="50" rx="12" fill="#706FE5"/>
<path d="M30.5625 19.7031C30.5625 16.7824 28.1863 14.4062 25.2656 14.4062C22.3449 14.4062 19.9688 16.7824 19.9688 19.7031C19.9688 22.6238 22.3449 25 25.2656 25C28.1863 25 30.5625 22.6238 30.5625 19.7031Z" fill="#706FE5"/>
<path d="M32.5312 30.9062V15.5781C32.5312 14.1565 31.3747 13 29.9531 13H20.5781C19.1565 13 18 14.1565 18 15.5781V30.9062H32.5312ZM27.1406 28.0938H23.3906C23.0023 28.0938 22.6875 27.7789 22.6875 27.3906C22.6875 27.0023 23.0023 26.6875 23.3906 26.6875H27.1406C27.5289 26.6875 27.8438 27.0023 27.8438 27.3906C27.8438 27.7789 27.5289 28.0938 27.1406 28.0938ZM21.5156 19.4219H22.3015C22.3777 19.1011 22.5042 18.7996 22.673 18.5268L22.1168 17.9705C21.8422 17.6959 21.8422 17.2508 22.1168 16.9762C22.3913 16.7016 22.8366 16.7016 23.1112 16.9762L23.6674 17.5324C23.9402 17.3635 24.2417 17.237 24.5625 17.1609V16.375C24.5625 15.9867 24.8773 15.6719 25.2656 15.6719C25.6539 15.6719 25.9688 15.9867 25.9688 16.375V17.1609C26.2896 17.237 26.591 17.3635 26.8639 17.5324L27.4201 16.9762C27.6946 16.7016 28.1399 16.7016 28.4145 16.9762C28.689 17.2508 28.689 17.6959 28.4145 17.9705L27.8582 18.5268C28.0271 18.7996 28.1536 19.1011 28.2297 19.4219H29.0156C29.4039 19.4219 29.7188 19.7367 29.7188 20.125C29.7188 20.5133 29.4039 20.8281 29.0156 20.8281H28.2297C28.1536 21.1489 28.0271 21.4504 27.8582 21.7232L28.4145 22.2795C28.689 22.5541 28.689 22.9992 28.4145 23.2738C28.2772 23.4111 28.0972 23.4798 27.9173 23.4798C27.7374 23.4798 27.5574 23.4112 27.4201 23.2738L26.8639 22.7176C26.5911 22.8865 26.2896 23.013 25.9688 23.0891V23.875C25.9688 24.2633 25.654 24.5781 25.2657 24.5781C24.8774 24.5781 24.5625 24.2633 24.5625 23.875V23.0891C24.2417 23.013 23.9403 22.8865 23.6674 22.7176L23.1112 23.2738C22.9739 23.4111 22.794 23.4798 22.614 23.4798C22.4341 23.4798 22.2541 23.4112 22.1169 23.2738C21.8423 22.9992 21.8423 22.5541 22.1169 22.2795L22.6731 21.7232C22.5043 21.4504 22.3778 21.1489 22.3016 20.8281H21.5156C21.1273 20.8281 20.8125 20.5133 20.8125 20.125C20.8125 19.7367 21.1273 19.4219 21.5156 19.4219Z" fill="#706FE5"/>
<path d="M18 32.3125V34.4219C18 35.8435 19.1565 37 20.5781 37H29.9531C31.3747 37 32.5312 35.8435 32.5312 34.4219V32.3125H18ZM26.2031 35.3594H24.3281C23.9398 35.3594 23.625 35.0446 23.625 34.6562C23.625 34.2679 23.9398 33.9531 24.3281 33.9531H26.2031C26.5914 33.9531 26.9062 34.2679 26.9062 34.6562C26.9062 35.0446 26.5914 35.3594 26.2031 35.3594Z" fill="#2E3E5C"/>
<rect x="22.5938" y="26.6406" width="5.39062" height="1.45312" rx="0.726562" fill="#706FE5"/>
<rect x="22.4531" y="14.0312" width="5.39062" height="1.45312" rx="0.726562" fill="#EAE9FB"/>
</svg>
