<svg width="110" height="42" viewBox="0 0 110 42" fill="none" xmlns="http://www.w3.org/2000/svg">
<path fill-rule="evenodd" clip-rule="evenodd" d="M108.659 20.3475L108.659 20.3476C108.356 21.485 107.214 25.7716 103.681 25.7716C102.104 25.7716 101.003 24.6105 100.343 23.1954C105.258 22.1069 106.908 18.2608 106.908 15.6484C106.908 12.6005 104.708 11.4757 102.837 11.4757C99.7931 11.4757 95.7955 14.3059 95.7955 19.7847C95.7955 20.2927 95.8322 20.7644 95.8689 21.1998C94.8053 20.8733 93.8884 20.329 93.265 19.3856C94.1818 15.3218 94.0351 11.4394 92.128 11.4394C91.0644 11.4394 90.1476 12.8182 90.1476 15.8661C90.1476 17.0634 90.4776 18.406 91.1011 19.6033C90.6977 21.4538 89.3774 25.953 87.6536 25.953C85.6184 25.953 85.8994 17.6325 86.01 14.3564C86.027 13.8543 86.0399 13.4706 86.0399 13.2536C86.0399 11.9111 82.7759 10.5323 82.079 11.2217C81.7856 11.512 81.7123 13.3262 81.7123 15.6484C81.7123 17.5714 81.859 19.821 82.2991 21.9255C82.079 23.0503 81.0888 25.9893 79.2917 25.9893C76.9949 25.9893 77.537 18.8688 77.799 15.4291C77.8549 14.6945 77.8981 14.1279 77.8981 13.8342C77.8981 12.6368 74.7807 11.512 74.0105 12.2377C73.7171 12.528 73.497 14.6687 73.497 17.9705C73.497 19.3493 73.5704 20.8007 73.7904 22.1795C73.497 23.6308 72.3234 25.9893 70.453 25.9893C67.4583 25.9893 68.7549 14.6198 69.5626 7.53769L69.5728 7.4482C70.0495 7.37564 70.5628 7.30309 71.0762 7.23054L71.0765 7.23049C71.1819 7.21891 71.2892 7.20662 71.3973 7.19424C72.6442 7.05151 74.0105 6.89509 74.0105 7.62962C74.0105 9.4801 75.2574 10.0606 76.1743 10.0606C77.2012 10.0606 78.0814 9.26239 78.0814 7.73847C78.0814 6.25082 76.7611 4.83575 74.4506 4.83575C72.9102 4.83575 71.3332 5.01717 69.7928 5.27116C69.8223 4.95032 69.8518 4.65033 69.8792 4.37187C69.9539 3.61112 70.0129 3.01113 70.0129 2.58614C70.0129 1.02593 66.7488 -0.497994 66.0887 0.155117C65.9786 0.263969 65.5385 2.73128 65.1351 6.17826C62.8612 6.61366 60.6241 7.01279 58.3869 7.01279C57.6167 7.01279 57.7267 9.33496 60.3307 9.33496C61.8343 9.33496 63.338 9.00841 64.8784 8.60928C64.6583 11.004 64.5116 13.6528 64.5116 16.1926C64.5116 18.4785 64.6583 20.4741 64.9517 22.1795C64.6583 23.4494 63.7414 26.0256 62.0177 26.0256C59.2716 26.0256 59.9017 18.215 60.191 14.6289C60.2494 13.9046 60.294 13.3527 60.294 13.0722C60.294 12.274 57.2866 10.5323 56.6631 11.1492C56.5898 11.2217 56.5164 11.7297 56.5164 11.7297C56.5164 11.7297 56.113 11.4394 55.0128 11.4394C50.7951 11.4394 47.421 16.5918 47.421 21.2724C47.421 21.4901 47.421 21.7078 47.4577 21.9255C46.7975 23.4494 45.1471 26.0619 42.1764 26.0619C40.6728 26.0619 39.6092 25.0822 38.8757 23.8123C43.4967 22.506 45.2938 18.5148 45.2938 15.9386C45.2938 12.9271 42.7266 11.4394 40.8561 11.4394C37.592 11.4394 34.0346 14.6687 34.0346 20.1113C34.0346 21.7078 34.328 23.0503 34.8414 24.2114C34.2546 25.1185 33.3744 26.0256 32.1641 26.0256C29.3988 26.0256 30.4272 18.4946 30.8883 15.1179L30.8883 15.1178C30.9899 14.3745 31.0639 13.8325 31.0639 13.6165C31.0639 13.3262 31.0639 12.7457 30.5137 12.3828C30.0204 12.0232 27.8356 11.6635 26.1202 11.3811C25.4128 11.2647 24.7852 11.1613 24.389 11.0766V10.2783C24.389 8.10131 23.032 7.62962 22.1151 7.62962C20.6114 7.62962 20.318 9.29868 20.318 9.6978C20.318 10.0969 20.4281 11.512 21.9317 12.3465C21.9317 16.3741 19.3278 25.9167 12.3595 25.9167C7.07831 25.9167 5.1712 20.5467 5.1712 16.5555C5.1712 9.80665 9.16879 4.61805 11.7361 4.61805C13.3452 4.61805 13.4409 6.16044 13.5369 7.70718C13.6334 9.26269 13.7302 10.8226 15.3669 10.8226C17.6408 10.8226 17.9708 8.64557 17.9708 7.62962C17.9708 5.74285 15.9904 2.2233 11.7361 2.2233C4.98782 2.2233 0 10.3509 0 17.3174C0 24.03 4.65775 29.4 11.1859 29.4C21.2716 29.4 23.7655 18.8051 24.279 12.8908C24.5133 12.9552 24.8631 13.0333 25.2235 13.1138C25.8784 13.26 26.5682 13.414 26.6628 13.5076C26.7798 13.6233 26.6837 14.4316 26.5443 15.6034L26.5443 15.6034V15.6034V15.6034C26.3777 17.004 26.1494 18.9239 26.1494 20.8007C26.1494 25.1185 27.5797 28.6018 31.0272 28.6018C33.191 28.6018 34.9148 27.0415 35.8316 25.8442C37.2253 27.6221 39.2424 28.5292 41.2229 28.5292C44.6337 28.5292 46.8709 26.4247 47.9711 24.7557C48.9247 27.2955 50.8685 28.5292 52.6289 28.5292C55.0861 28.5292 56.5531 25.2636 56.6265 24.7557C57.36 27.0415 59.0837 28.6018 61.0275 28.6018C63.4847 28.6018 64.9884 26.3884 65.5752 25.0096C66.4554 27.3318 67.8491 28.6018 69.8662 28.6018C72.1767 28.6018 73.6804 26.5336 74.3772 25.1548C75.1107 27.1867 76.321 28.6018 78.2281 28.6018C80.7954 28.6018 82.4091 25.9893 82.9226 24.6831C83.7661 26.9327 85.0864 28.5292 87.1402 28.5292C89.4141 28.5292 91.3945 25.2999 92.5681 21.6715C93.5217 22.5786 94.7686 23.2317 96.2723 23.4131C97.4092 26.6787 100.087 28.4929 102.911 28.4929C107.825 28.4929 109.732 23.4857 109.952 22.3246C110.246 21.1273 109.109 19.7122 108.742 20.075C108.728 20.0885 108.702 20.1864 108.659 20.3475ZM40.7094 12.9996C42.7632 12.9996 41.553 20.7644 38.1788 22.0344C37.9221 21.1998 37.8121 20.4016 37.8121 19.7847C37.7754 17.1723 38.839 12.9996 40.7094 12.9996ZM53.2157 25.3362C49.6215 25.3362 52.1521 13.0359 55.0127 13.0359C56.9199 13.0359 56.6265 25.3362 53.2157 25.3362ZM102.36 13.0722C104.341 13.0722 103.204 21.091 99.7565 21.5989C99.5731 20.9458 99.4997 20.2927 99.4997 19.7847C99.4997 17.1723 100.49 13.0722 102.36 13.0722ZM34.2157 34.3H33.0224C32.9478 34.3 32.8732 34.3377 32.8359 34.4132L30.7104 37.999C30.5985 38.1123 30.5239 38.1123 30.4493 37.999L28.3984 34.4132C28.3611 34.3377 28.2865 34.3 28.2119 34.3H27.0559C26.9067 34.3 26.7949 34.4132 26.7949 34.5642V41.7358C26.7949 41.8868 26.9067 42 27.0559 42H28.2119C28.3611 42 28.4729 41.8868 28.4729 41.7358V38.0368C28.4729 37.8103 28.6967 37.6971 28.8458 37.8858L30.4493 40.5279C30.5612 40.6789 30.7477 40.6789 30.8222 40.5279L32.463 37.8858C32.6122 37.6971 32.8359 37.8103 32.8359 38.0368V41.7358C32.8359 41.8868 32.9478 42 33.097 42H34.2902C34.4394 42 34.5513 41.8868 34.5513 41.7358V34.5642C34.4767 34.4132 34.3648 34.3 34.2157 34.3ZM42.5887 34.3C42.6973 34.3 42.7697 34.3759 42.8059 34.4517L45.8107 41.6586C45.8831 41.8103 45.7745 42 45.5934 42H44.3988C44.2902 42 44.2178 41.9241 44.1816 41.8483L43.7109 40.6345C43.6747 40.5586 43.6023 40.4828 43.4937 40.4828H40.4165C40.3079 40.4828 40.2355 40.5586 40.1993 40.6345L39.7649 41.8483C39.7287 41.9241 39.6563 42 39.5477 42H38.3168C38.1358 42 38.0272 41.8103 38.0996 41.6586L41.1406 34.4517C41.1768 34.3759 41.2492 34.3 41.3578 34.3H42.5887ZM41.213 39.0034H42.7697C42.9145 39.0034 43.0593 38.8138 43.0231 38.6621L42.2266 36.5759C42.1542 36.3862 41.8646 36.3862 41.7922 36.5759L40.9958 38.6621C40.9234 38.8138 41.032 39.0034 41.213 39.0034ZM64.3804 37.5083C64.3092 37.5838 64.3092 37.7348 64.3804 37.8103L66.9445 41.6225C67.0514 41.7735 66.9445 42 66.7665 42H65.4132C65.342 42 65.2707 41.9623 65.2351 41.8868L63.4545 39.1691C63.3832 39.0559 63.2052 39.0559 63.0983 39.1691L62.1724 40.3392C62.1724 40.3581 62.1635 40.3864 62.1546 40.4147C62.1457 40.443 62.1368 40.4713 62.1368 40.4902V41.7358C62.1368 41.849 62.0656 41.9623 61.9231 41.9623H60.8547C60.7479 41.9623 60.641 41.8868 60.641 41.7358V34.5265C60.641 34.4132 60.7123 34.3 60.8547 34.3H61.9231C62.0299 34.3 62.1368 34.3755 62.1368 34.5265V37.4706C62.1368 37.6971 62.3861 37.8103 62.5285 37.6216L64.9858 34.3755C65.0214 34.3377 65.0927 34.3 65.1639 34.3H66.3747C66.5528 34.3 66.6596 34.5265 66.5528 34.6775L64.3804 37.5083ZM76.5971 40.4448H73.0842C72.9378 40.4448 72.828 40.331 72.828 40.1793V39.0414C72.828 38.8897 72.9378 38.7759 73.0842 38.7759H75.4262C75.5725 38.7759 75.6823 38.6621 75.6823 38.5103V37.6759C75.6823 37.5241 75.5725 37.4103 75.4262 37.4103H73.0842C72.9378 37.4103 72.828 37.2966 72.828 37.1448V36.0448C72.828 35.8931 72.9378 35.7793 73.0842 35.7793H76.341C76.4874 35.7793 76.5971 35.6655 76.5971 35.5138V34.5655C76.5971 34.4138 76.4874 34.3 76.341 34.3H71.4741C71.3277 34.3 71.2179 34.4138 71.2179 34.5655V41.7345C71.2179 41.8862 71.3277 42 71.4741 42H76.5971C76.7435 42 76.8533 41.8862 76.8533 41.7345V40.7862C76.8899 40.5586 76.7435 40.4448 76.5971 40.4448ZM80.6039 34.3H86.5609C86.6706 34.3 86.7802 34.4045 86.7071 34.509V35.4144C86.7071 35.5189 86.634 35.6234 86.4878 35.6234H84.5509C84.4412 35.6234 84.3316 35.693 84.3316 35.8323V41.091C84.3316 41.1955 84.2585 41.3 84.1123 41.3H82.9794C82.8698 41.3 82.7601 41.2303 82.7601 41.091V35.8323C82.7601 35.7279 82.687 35.6234 82.5408 35.6234H80.6039C80.4943 35.6234 80.3846 35.5537 80.3846 35.4144V34.509C80.3846 34.4045 80.4577 34.3 80.6039 34.3ZM52.5016 34.3C54.5212 34.3 55.7051 35.5078 55.7051 37.1686C55.7051 38.1877 55.2873 38.8672 54.7301 39.3578C54.6605 39.4333 54.6257 39.5466 54.6605 39.6598L55.6007 41.6603C55.6703 41.8113 55.5658 42 55.3917 42H54.173C54.0685 42 53.9989 41.9245 53.9641 41.849L53.1632 40.1127C53.1066 39.9901 53.05 39.992 52.9001 39.997C52.8655 39.9982 52.8259 39.9995 52.7802 39.9995H52.6409H51.8052C51.5962 39.9995 51.5614 40.0373 51.5614 40.226V41.7358C51.5614 41.849 51.4918 41.9623 51.3525 41.9623H50.273C50.1686 41.9623 50.0641 41.8868 50.0641 41.7358V34.5642C50.0641 34.451 50.1337 34.3377 50.273 34.3377C51.0391 34.3 51.7703 34.3 52.5016 34.3ZM52.3275 38.5358C52.4203 38.5316 52.5132 38.5275 52.606 38.5275C53.6855 38.452 54.173 37.8858 54.173 37.1686C54.173 36.3005 53.4766 35.8475 52.5712 35.8098C52.2578 35.7721 52.0141 35.7721 51.7703 35.7721C51.6659 35.7721 51.5614 35.8475 51.5614 35.9985V38.301C51.5614 38.4142 51.6311 38.5275 51.7703 38.5275C51.9561 38.5526 52.1418 38.5442 52.3275 38.5358Z" fill="#2E3E5C"/>
</svg>
