<svg width="125" height="125" viewBox="0 0 125 125" fill="none" xmlns="http://www.w3.org/2000/svg">
<g opacity="0.8" filter="url(#filter0_d_3_562)">
<circle cx="62.665" cy="56.6649" r="42" transform="rotate(-17.8082 62.665 56.6649)" fill="#2B2C34"/>
</g>
<path d="M109.82 43.9875C116.914 66.072 104.762 89.726 82.6774 96.82C60.5929 103.914 36.9389 91.7618 29.8449 69.6773C22.7509 47.5928 34.9031 23.9388 56.9876 16.8448C79.0722 9.75075 102.726 21.903 109.82 43.9875Z" fill="#2B2C34"/>
<circle cx="69.8325" cy="56.8324" r="42" transform="rotate(-17.8082 69.8325 56.8324)" fill="#706FE5" fill-opacity="0.15"/>
<g clip-path="url(#clip0_3_562)">
<path d="M69.7517 82.3172C71.7718 81.6684 73.4513 80.2436 74.4209 78.3563C75.3905 76.4691 75.5706 74.274 74.9217 72.2539L72.4751 64.6372L64.8584 67.0839C62.8383 67.7328 61.1588 69.1575 60.1892 71.0448C59.2196 72.932 59.0395 75.1271 59.6883 77.1472C60.3372 79.1673 61.762 80.8468 63.6493 81.8164C65.5365 82.786 67.7316 82.9661 69.7517 82.3172Z" fill="#0ACF83"/>
<path d="M54.795 61.9141C54.1461 59.894 54.3263 57.6989 55.2959 55.8116C56.2654 53.9244 57.945 52.4996 59.9651 51.8507L67.5818 49.4041L72.4751 64.6374L64.8584 67.0841C62.8383 67.733 60.6432 67.5528 58.756 66.5833C56.8687 65.6137 55.4439 63.9341 54.795 61.9141Z" fill="#A259FF"/>
<path d="M49.9017 46.6807C49.2532 44.6616 49.4328 42.4677 50.4011 40.581C51.3695 38.6944 53.0473 37.2694 55.0658 36.6192L62.6825 34.1726L67.5758 49.406L59.9651 51.8507C57.945 52.4996 55.7499 52.3194 53.8626 51.3499C51.9754 50.3803 50.5506 48.7007 49.9017 46.6807Z" fill="#F24E1E"/>
<path d="M62.6885 34.1707L70.3052 31.724C72.3252 31.0751 74.5203 31.2553 76.4076 32.2248C78.2948 33.1944 79.7196 34.874 80.3685 36.894C81.0174 38.9141 80.8372 41.1092 79.8677 42.9965C78.8981 44.8837 77.2185 46.3085 75.1985 46.9574L67.5818 49.404L62.6885 34.1707Z" fill="#FF7262"/>
<path d="M85.2618 52.1274C85.9107 54.1475 85.7305 56.3426 84.761 58.2299C83.7914 60.1171 82.1118 61.5419 80.0918 62.1908C78.0717 62.8397 75.8766 62.6595 73.9894 61.6899C72.1021 60.7204 70.6773 59.0408 70.0284 57.0207C69.3795 55.0007 69.5597 52.8056 70.5293 50.9183C71.4988 49.0311 73.1784 47.6063 75.1985 46.9574C77.2185 46.3085 79.4137 46.4887 81.3009 47.4582C83.1881 48.4278 84.6129 50.1074 85.2618 52.1274Z" fill="#1ABCFE"/>
</g>
<defs>
<filter id="filter0_d_3_562" x="0.653809" y="0.653564" width="124.022" height="124.023" filterUnits="userSpaceOnUse" color-interpolation-filters="sRGB">
<feFlood flood-opacity="0" result="BackgroundImageFix"/>
<feColorMatrix in="SourceAlpha" type="matrix" values="0 0 0 0 0 0 0 0 0 0 0 0 0 0 0 0 0 0 127 0" result="hardAlpha"/>
<feOffset dy="6"/>
<feGaussianBlur stdDeviation="10"/>
<feComposite in2="hardAlpha" operator="out"/>
<feColorMatrix type="matrix" values="0 0 0 0 0.168627 0 0 0 0 0.172549 0 0 0 0 0.203922 0 0 0 0.2 0"/>
<feBlend mode="normal" in2="BackgroundImageFix" result="effect1_dropShadow_3_562"/>
<feBlend mode="normal" in="SourceGraphic" in2="effect1_dropShadow_3_562" result="shape"/>
</filter>
<clipPath id="clip0_3_562">
<rect width="48" height="48" fill="white" transform="translate(39.8325 41.5125) rotate(-17.8082)"/>
</clipPath>
</defs>
</svg>
