<svg
  width="94"
  height="38"
  viewBox="0 0 94 38"
  fill="none"
  xmlns="http://www.w3.org/2000/svg"
>
<path
    d="M24.328 14.576C24.328 15.552 24.104 16.448 23.656 17.264C23.208 18.064 22.52 18.712 21.592 19.208C20.664 19.704 19.512 19.952 18.136 19.952H15.592V26H11.488V9.152H18.136C19.48 9.152 20.616 9.384 21.544 9.848C22.472 10.312 23.168 10.952 23.632 11.768C24.096 12.584 24.328 13.52 24.328 14.576ZM17.824 16.688C18.608 16.688 19.192 16.504 19.576 16.136C19.96 15.768 20.152 15.248 20.152 14.576C20.152 13.904 19.96 13.384 19.576 13.016C19.192 12.648 18.608 12.464 17.824 12.464H15.592V16.688H17.824ZM32.6356 26.192C31.3236 26.192 30.1396 25.912 29.0836 25.352C28.0436 24.792 27.2196 23.992 26.6116 22.952C26.0196 21.912 25.7236 20.696 25.7236 19.304C25.7236 17.928 26.0276 16.72 26.6356 15.68C27.2436 14.624 28.0756 13.816 29.1316 13.256C30.1876 12.696 31.3716 12.416 32.6836 12.416C33.9956 12.416 35.1796 12.696 36.2356 13.256C37.2916 13.816 38.1236 14.624 38.7316 15.68C39.3396 16.72 39.6436 17.928 39.6436 19.304C39.6436 20.68 39.3316 21.896 38.7076 22.952C38.0996 23.992 37.2596 24.792 36.1876 25.352C35.1316 25.912 33.9476 26.192 32.6356 26.192ZM32.6356 22.64C33.4196 22.64 34.0836 22.352 34.6276 21.776C35.1876 21.2 35.4676 20.376 35.4676 19.304C35.4676 18.232 35.1956 17.408 34.6516 16.832C34.1236 16.256 33.4676 15.968 32.6836 15.968C31.8836 15.968 31.2196 16.256 30.6916 16.832C30.1636 17.392 29.8996 18.216 29.8996 19.304C29.8996 20.376 30.1556 21.2 30.6676 21.776C31.1956 22.352 31.8516 22.64 32.6356 22.64ZM61.1198 12.608L57.4958 26H52.9598L50.8478 17.312L48.6638 26H44.1518L40.5038 12.608H44.6078L46.5038 22.184L48.7598 12.608H53.1038L55.3838 22.136L57.2558 12.608H61.1198ZM75.3839 19.088C75.3839 19.472 75.3599 19.872 75.3119 20.288H66.0239C66.0879 21.12 66.3519 21.76 66.8159 22.208C67.2959 22.64 67.8799 22.856 68.5679 22.856C69.5919 22.856 70.3039 22.424 70.7039 21.56H75.0719C74.8479 22.44 74.4399 23.232 73.8479 23.936C73.2719 24.64 72.5439 25.192 71.6639 25.592C70.7839 25.992 69.7999 26.192 68.7119 26.192C67.3999 26.192 66.2319 25.912 65.2079 25.352C64.1839 24.792 63.3839 23.992 62.8079 22.952C62.2319 21.912 61.9439 20.696 61.9439 19.304C61.9439 17.912 62.2239 16.696 62.7839 15.656C63.3599 14.616 64.1599 13.816 65.1839 13.256C66.2079 12.696 67.3839 12.416 68.7119 12.416C70.0079 12.416 71.1599 12.688 72.1679 13.232C73.1759 13.776 73.9599 14.552 74.5199 15.56C75.0959 16.568 75.3839 17.744 75.3839 19.088ZM71.1839 18.008C71.1839 17.304 70.9439 16.744 70.4639 16.328C69.9839 15.912 69.3839 15.704 68.6639 15.704C67.9759 15.704 67.3919 15.904 66.9119 16.304C66.4479 16.704 66.1599 17.272 66.0479 18.008H71.1839ZM81.7279 14.84C82.2079 14.104 82.8079 13.528 83.5279 13.112C84.2479 12.68 85.0479 12.464 85.9279 12.464V16.808H84.7999C83.7759 16.808 83.0079 17.032 82.4959 17.48C81.9839 17.912 81.7279 18.68 81.7279 19.784V26H77.6239V12.608H81.7279V14.84Z"
    fill="white"
  />
<circle cx="91" cy="24" r="3" fill="#706FE5" />
<path
    d="M16 30C16 31.5823 15.5308 33.129 14.6518 34.4446C13.7727 35.7602 12.5233 36.7855 11.0615 37.391C9.59966 37.9965 7.99113 38.155 6.43928 37.8463C4.88743 37.5376 3.46197 36.7757 2.34315 35.6569C1.22433 34.538 0.4624 33.1126 0.153718 31.5607C-0.154964 30.0089 0.00346269 28.4003 0.608964 26.9385C1.21446 25.4767 2.23984 24.2273 3.55544 23.3482C4.87103 22.4692 6.41775 22 8 22L8 30H16Z"
    fill="#706FE5"
  />
</svg>
