<svg width="109" height="36" viewBox="0 0 109 36" fill="none" xmlns="http://www.w3.org/2000/svg">
<path fill-rule="evenodd" clip-rule="evenodd" d="M14.0572 12.6859H26.8107C26.8107 12.6859 27.0374 13.6002 27.0374 15.2002C27.0374 22.8001 21.5959 27.8858 14.1706 27.8858C5.72491 27.8858 0 20.9716 0 13.8859C0 6.62887 6.065 -0.0567786 13.9438 0.000363663C20.1222 0.000363663 23.5231 3.77175 23.5231 3.77175L20.9158 6.51458C20.9158 6.51458 18.4217 3.77175 14.1139 3.77175C8.55902 3.77175 4.13781 8.22885 4.13781 14.0002C4.13781 19.8859 8.78575 24.1144 14.1139 24.1144C18.2517 24.1144 22.6729 21.7716 23.1264 16.4573H14.0572V12.6859ZM37.1836 9.88598C31.9688 9.88598 28.2278 14.0002 28.2278 18.8002C28.2278 23.7144 31.8554 27.8858 37.2969 27.8858C42.2283 27.8858 46.196 24.1715 46.196 18.9145C46.1394 12.9717 41.4914 9.88598 37.1836 9.88598ZM37.2402 13.4859C39.791 13.4859 42.2283 15.6002 42.2283 18.9145C42.2283 22.2287 39.8476 24.343 37.2402 24.343C34.4061 24.343 32.1955 22.0573 32.1955 18.8573C32.1388 15.7716 34.3495 13.4859 37.2402 13.4859ZM47.7265 18.8002C47.7265 14.0002 51.4675 9.88598 56.6823 9.88598C60.9901 9.88598 65.6381 12.9717 65.6947 18.9145C65.6947 24.1715 61.727 27.8858 56.7956 27.8858C51.3541 27.8858 47.7265 23.7144 47.7265 18.8002ZM61.727 18.9145C61.727 15.6002 59.2897 13.4859 56.739 13.4859C53.8482 13.4859 51.6375 15.7716 51.6942 18.8573C51.6942 22.0573 53.9048 24.343 56.739 24.343C59.3463 24.343 61.727 22.2287 61.727 18.9145ZM75.7842 9.94312C70.9662 9.94312 67.2252 14.1716 67.2252 18.9145C67.2252 24.2858 71.5897 27.9429 75.6708 27.9429C78.2215 27.9429 79.5252 26.9715 80.6022 25.7715V27.5429C80.6022 30.6286 78.7317 32.5143 75.8976 32.5143C73.1768 32.5143 71.8164 30.4572 71.3063 29.3144L67.8487 30.7429C69.039 33.3143 71.4763 36 75.8409 36C80.6022 36 84.2298 32.9715 84.2298 26.6287V10.4574H80.4888V12.0002C79.4685 10.7431 77.8814 9.94312 75.7842 9.94312ZM76.1243 13.4859C78.4483 13.4859 80.8856 15.5431 80.8856 18.9716C80.8856 22.5144 78.5049 24.4001 76.0676 24.4001C73.5169 24.4001 71.1362 22.2859 71.1362 19.0287C71.1929 15.4859 73.6303 13.4859 76.1243 13.4859ZM92.6755 18.8573C92.6755 13.4859 96.4732 9.88598 101.008 9.88598C104.522 9.88598 107.186 12.286 108.376 15.0288L109 16.5145L97.04 21.543C97.7769 22.9144 98.9106 24.2858 101.405 24.2858C103.615 24.2858 104.976 23.0858 105.769 21.8287L108.887 23.943C107.526 25.7715 105.146 27.8858 101.405 27.8858C96.9267 27.8858 92.6755 24.5144 92.6755 18.8573ZM104.465 15.3145C103.899 14.2288 102.765 13.3717 101.121 13.3717C98.5705 13.3717 96.0764 16.0573 96.5299 18.6859L104.465 15.3145ZM90.9184 27.3715H87.0073V0.857498H90.9184V27.3715Z" fill="#2E3E5C"/>
</svg>
