<svg width="94" height="38" viewBox="0 0 94 38" fill="none" xmlns="http://www.w3.org/2000/svg">
<path d="M15.592 16.688V12.464H17.824C19.456 12.464 20.152 13.28 20.152 14.576C20.152 15.872 19.456 16.688 17.824 16.688H15.592ZM24.328 14.576C24.328 11.48 22.264 9.152 18.136 9.152H11.488V26H15.592V19.952H18.136C22.432 19.952 24.328 17.36 24.328 14.576ZM39.6436 19.304C39.6436 15.056 36.6196 12.416 32.6836 12.416C28.7716 12.416 25.7236 15.056 25.7236 19.304C25.7236 23.552 28.6996 26.192 32.6356 26.192C36.5716 26.192 39.6436 23.552 39.6436 19.304ZM29.8996 19.304C29.8996 17.024 31.1956 15.968 32.6836 15.968C34.1236 15.968 35.4676 17.024 35.4676 19.304C35.4676 21.56 34.0996 22.64 32.6356 22.64C31.1476 22.64 29.8996 21.56 29.8996 19.304ZM44.1518 26H48.6638L50.8478 17.312L52.9598 26H57.4958L61.1198 12.608H57.2558L55.3838 22.136L53.1038 12.608H48.7598L46.5038 22.184L44.6078 12.608H40.5038L44.1518 26ZM68.6639 15.704C70.0319 15.704 71.1839 16.544 71.1839 18.008H66.0479C66.2879 16.52 67.3199 15.704 68.6639 15.704ZM75.0719 21.56H70.7039C70.3679 22.28 69.7199 22.856 68.5679 22.856C67.2479 22.856 66.1679 22.04 66.0239 20.288H75.3119C75.3599 19.88 75.3839 19.472 75.3839 19.088C75.3839 15.008 72.6239 12.416 68.7119 12.416C64.7279 12.416 61.9439 15.056 61.9439 19.304C61.9439 23.552 64.7759 26.192 68.7119 26.192C72.0479 26.192 74.4239 24.176 75.0719 21.56ZM81.7279 19.784C81.7279 17.48 82.8559 16.808 84.7999 16.808H85.9279V12.464C84.1279 12.464 82.6639 13.424 81.7279 14.84V12.608H77.6239V26H81.7279V19.784Z" fill="#1E1F4B"/>
<circle cx="91" cy="24" r="3" fill="#706FE5"/>
<path d="M16 30C16 31.5823 15.5308 33.129 14.6518 34.4446C13.7727 35.7602 12.5233 36.7855 11.0615 37.391C9.59966 37.9965 7.99113 38.155 6.43928 37.8463C4.88743 37.5376 3.46197 36.7757 2.34315 35.6569C1.22433 34.538 0.4624 33.1126 0.153718 31.5607C-0.154964 30.0089 0.00346269 28.4003 0.608964 26.9385C1.21446 25.4767 2.23985 24.2273 3.55544 23.3482C4.87103 22.4692 6.41775 22 8 22V30H16Z" fill="#706FE5"/>
</svg>
