<svg width="114" height="94" viewBox="0 0 114 94" fill="none" xmlns="http://www.w3.org/2000/svg">
<ellipse cx="19.5038" cy="3.16656" rx="2.5" ry="2.62469" transform="rotate(14.4844 19.5038 3.16656)" fill="#706FE5"/>
<ellipse cx="8.55263" cy="45.5593" rx="2.5" ry="2.62469" transform="rotate(14.4844 8.55263 45.5593)" fill="#706FE5"/>
<ellipse cx="55.7055" cy="12.5184" rx="2.5" ry="2.62469" transform="rotate(14.4844 55.7055 12.5184)" fill="#706FE5"/>
<ellipse cx="44.7543" cy="54.9112" rx="2.5" ry="2.62469" transform="rotate(14.4844 44.7543 54.9112)" fill="#706FE5"/>
<ellipse cx="91.9071" cy="21.8703" rx="2.5" ry="2.62469" transform="rotate(14.4844 91.9071 21.8703)" fill="#706FE5"/>
<ellipse cx="80.9557" cy="64.2631" rx="2.5" ry="2.62469" transform="rotate(14.4844 80.9557 64.2631)" fill="#706FE5"/>
<ellipse cx="14.0282" cy="24.3628" rx="2.5" ry="2.62469" transform="rotate(14.4844 14.0282 24.3628)" fill="#706FE5"/>
<ellipse cx="3.07705" cy="66.7554" rx="2.5" ry="2.62469" transform="rotate(14.4844 3.07705 66.7554)" fill="#706FE5"/>
<ellipse cx="50.2299" cy="33.7147" rx="2.5" ry="2.62469" transform="rotate(14.4844 50.2299 33.7147)" fill="#706FE5"/>
<ellipse cx="39.2787" cy="76.1072" rx="2.5" ry="2.62469" transform="rotate(14.4844 39.2787 76.1072)" fill="#706FE5"/>
<ellipse cx="86.4315" cy="43.0666" rx="2.5" ry="2.62469" transform="rotate(14.4844 86.4315 43.0666)" fill="#706FE5"/>
<ellipse cx="75.4804" cy="85.4591" rx="2.5" ry="2.62469" transform="rotate(14.4844 75.4804 85.4591)" fill="#706FE5"/>
<ellipse cx="37.6046" cy="7.84249" rx="2.5" ry="2.62469" transform="rotate(14.4844 37.6046 7.84249)" fill="#706FE5"/>
<ellipse cx="26.6535" cy="50.2353" rx="2.5" ry="2.62469" transform="rotate(14.4844 26.6535 50.2353)" fill="#706FE5"/>
<ellipse cx="73.8063" cy="17.1944" rx="2.5" ry="2.62469" transform="rotate(14.4844 73.8063 17.1944)" fill="#706FE5"/>
<ellipse cx="62.8551" cy="59.5871" rx="2.5" ry="2.62469" transform="rotate(14.4844 62.8551 59.5871)" fill="#706FE5"/>
<ellipse cx="110.008" cy="26.5462" rx="2.5" ry="2.62469" transform="rotate(14.4844 110.008 26.5462)" fill="#706FE5"/>
<ellipse cx="99.0565" cy="68.939" rx="2.5" ry="2.62469" transform="rotate(14.4844 99.0565 68.939)" fill="#706FE5"/>
<ellipse cx="32.1291" cy="29.0388" rx="2.5" ry="2.62469" transform="rotate(14.4844 32.1291 29.0388)" fill="#706FE5"/>
<ellipse cx="21.1779" cy="71.4313" rx="2.5" ry="2.62469" transform="rotate(14.4844 21.1779 71.4313)" fill="#706FE5"/>
<ellipse cx="68.3307" cy="38.3906" rx="2.5" ry="2.62469" transform="rotate(14.4844 68.3307 38.3906)" fill="#706FE5"/>
<ellipse cx="57.3795" cy="80.7831" rx="2.5" ry="2.62469" transform="rotate(14.4844 57.3795 80.7831)" fill="#706FE5"/>
<ellipse cx="104.532" cy="47.7425" rx="2.5" ry="2.62469" transform="rotate(14.4844 104.532 47.7425)" fill="#706FE5"/>
<ellipse cx="93.5812" cy="90.135" rx="2.5" ry="2.62469" transform="rotate(14.4844 93.5812 90.135)" fill="#706FE5"/>
</svg>
