<svg width="126" height="36" viewBox="0 0 126 36" fill="none" xmlns="http://www.w3.org/2000/svg">
<path fill-rule="evenodd" clip-rule="evenodd" d="M30.868 32.7798L30.8679 32.7789C30.8039 32.3443 27.0806 7.05967 27.018 6.87215C27.018 6.68301 26.8287 6.61997 26.7024 6.61997C26.5762 6.61997 23.8617 6.43082 23.8617 6.43082L21.7786 4.35026C21.766 4.3377 21.7523 4.32624 21.7376 4.31581C21.6697 4.26672 21.5684 4.22517 21.4666 4.22419C21.3342 4.20749 21.1968 4.21531 21.1032 4.22064C21.0693 4.22257 21.0412 4.22417 21.021 4.22417C21.021 4.22417 20.5792 4.35026 19.9479 4.5394C19.3166 2.71103 18.2435 1.0718 16.2866 1.0718H16.1603C15.5922 0.378284 14.8978 0 14.3297 0C9.78457 0 7.63828 5.67426 6.94389 8.57443C5.17635 9.14186 3.91383 9.52014 3.78758 9.52014L3.72447 9.54113C2.83778 9.83586 2.77469 9.85684 2.6513 10.7811C2.52505 11.4116 0 31.3345 0 31.3345L19.9515 35.0432L19.9479 35.1173L30.8687 32.7846L30.868 32.7798ZM18.8747 4.91769C18.5532 5.03814 18.206 5.13302 17.8332 5.23489C17.6205 5.29299 17.3996 5.35337 17.1703 5.42207V5.04378C17.1703 3.90893 16.981 3.02627 16.7285 2.33275C17.8016 2.3958 18.496 3.5937 18.8747 4.91769ZM16.0341 5.61121C16.0341 4.28722 15.8447 3.27846 15.5922 2.58494C14.4559 3.02627 13.1934 4.28722 12.5621 6.87215C13.7615 6.49387 14.9609 6.11559 16.0341 5.80035V5.61121ZM14.2034 1.32399C14.3928 1.32399 14.5822 1.38704 14.7715 1.51313C13.3196 2.20666 11.7415 3.90893 11.1102 7.37653C10.3712 7.62256 9.63219 7.83019 8.92319 8.02938L8.92272 8.02951L8.9217 8.0298L8.92156 8.02984C8.72268 8.08572 8.52616 8.14093 8.33267 8.19615C9.15331 5.54816 10.984 1.32399 14.2034 1.32399ZM16.3497 12.6095L15.024 16.5814C15.024 16.5814 13.8246 15.951 12.4359 15.951C10.3527 15.951 10.2265 17.275 10.2265 17.5902C10.2265 18.3157 10.972 18.8626 11.8714 19.5223C13.2384 20.525 14.9609 21.7884 14.9609 24.3363C14.9609 27.6778 12.8146 29.8214 9.97395 29.8214C6.56513 29.8214 4.7976 27.6778 4.7976 27.6778L5.68136 24.6515C5.68136 24.6515 7.51202 26.2277 9.02705 26.2277C10.0371 26.2277 10.4158 25.4711 10.4158 24.8406C10.4158 23.7886 9.66118 23.1864 8.81462 22.5108C7.73328 21.6479 6.502 20.6653 6.502 18.4729C6.502 15.1944 8.83768 12.042 13.6353 12.042C15.4659 12.042 16.3497 12.6095 16.3497 12.6095ZM108.262 14.0595H111.228L110.66 17.1489H107.693L105.421 29.0648H101.128L103.401 17.2119H101.381L102.012 13.9965H104.032L104.158 13.303C104.474 11.5377 105.168 9.77233 106.62 8.51138C107.757 7.50263 109.272 7.0613 110.787 7.0613C112.365 7.0613 113.122 7.43958 113.122 7.43958L112.302 10.7811C112.302 10.7811 111.67 10.5919 110.913 10.5919C109.524 10.5919 108.64 11.9159 108.388 13.366L108.262 14.0595ZM58.8337 13.7443C56.9399 13.7443 55.488 14.627 54.2886 16.014H54.2255L55.8667 7.37653H51.5742L47.4078 29.1909H51.7004L53.1523 21.7513C53.7204 18.9142 55.1723 17.2119 56.498 17.2119C57.4449 17.2119 57.8236 17.8424 57.8236 18.7881C57.8236 19.3555 57.7605 20.1121 57.6343 20.6795L55.993 29.1909H60.3487L62.0531 20.3643C62.2425 19.4186 62.3687 18.3468 62.3687 17.5902C62.3056 15.1944 61.0431 13.7443 58.8337 13.7443ZM43.5571 20.049C42.484 19.4816 41.9158 18.9772 41.9158 18.2837C41.9158 17.4011 42.6733 16.8336 43.9359 16.8336C45.3246 16.8336 46.5872 17.4011 46.5872 17.4011L47.5972 14.3748C47.5972 14.3748 46.7134 13.6813 43.999 13.6813C40.2746 13.6813 37.6864 15.8249 37.6864 18.7881C37.6864 20.4904 38.8858 21.8144 40.5271 22.697C41.8527 23.4536 42.2946 23.958 42.2946 24.7145C42.2946 25.5342 41.6633 26.1646 40.4008 26.1646C38.5701 26.1646 36.9289 25.2189 36.9289 25.2189L35.8557 28.2452C35.8557 28.2452 37.4339 29.317 40.0852 29.317C43.9359 29.317 46.6503 27.4256 46.6503 24.021C46.5872 22.3187 45.1984 21.0578 43.5571 20.049ZM63.4419 23.5166C63.4419 18.4098 66.8507 13.7443 71.9639 13.7443C75.9409 13.7443 77.7715 16.5814 77.7715 19.7338C77.7715 24.9667 74.3627 29.5061 69.3126 29.5061C65.4619 29.5061 63.4419 26.8581 63.4419 23.5166ZM69.8808 26.1646C68.4289 26.1646 67.7976 24.9037 67.7976 23.3905C67.7976 20.9317 69.0601 16.9597 71.3958 16.9597C72.9108 16.9597 73.4158 18.2837 73.4158 19.5447C73.3527 22.1296 72.0902 26.1646 69.8808 26.1646ZM84.1473 16.2662C84.1473 16.2662 85.7886 13.7443 88.6924 13.7443C91.7856 13.7443 93.0481 16.2662 93.0481 19.1664C93.0481 24.3993 89.7655 29.5061 84.7786 29.5061C83.1373 29.5061 82.2535 28.9387 82.2535 28.9387H82.1904L80.991 35.2434H76.7615L79.6653 19.6708C80.0441 17.9054 80.3597 15.5727 80.5491 13.9965H84.3367L84.0842 16.2662H84.1473ZM84.5892 26.1646C83.4529 26.1646 82.8216 25.5342 82.8216 25.5342L83.516 21.5622C84.021 18.9142 85.4098 17.1489 86.8617 17.1489C88.1874 17.1489 88.5661 18.3468 88.5661 19.4816C88.6293 22.3187 86.988 26.1646 84.5892 26.1646ZM96.7094 10.0245C96.7094 8.63748 97.7826 7.56567 99.1713 7.56567C100.434 7.56567 101.318 8.51138 101.318 9.70928C101.255 11.2855 100.118 12.1681 98.7926 12.1681H98.7295C97.5301 12.1681 96.7094 11.2855 96.7094 10.0245ZM93.1743 29.0648H97.4669L100.371 13.9335H96.0782L93.1743 29.0648ZM121.455 14.0595C121.455 14.0595 118.804 20.8056 117.604 24.4623H117.541C117.478 23.2644 116.468 14.0595 116.468 14.0595H111.986L114.574 27.9299C114.637 28.2452 114.574 28.4343 114.511 28.6235C114.006 29.5692 113.185 30.5149 112.175 31.2084C111.355 31.7758 110.471 32.1541 109.777 32.4063L110.976 36C111.86 35.8109 113.627 35.1173 115.142 33.6673C117.099 31.8389 118.867 29.0018 120.761 25.2189L126 14.0595H121.455Z" fill="#2E3E5C"/>
</svg>
