<svg width="50" height="50" viewBox="0 0 50 50" fill="none" xmlns="http://www.w3.org/2000/svg">
<rect opacity="0.15" width="50" height="50" rx="12" fill="#706FE5"/>
<path fill-rule="evenodd" clip-rule="evenodd" d="M27.6108 30.28L28.3788 34.12H29.7998C30.0649 34.12 30.2798 34.3349 30.2798 34.6C30.2798 34.8651 30.0649 35.08 29.7998 35.08H20.1998C19.9347 35.08 19.7198 34.8651 19.7198 34.6C19.7198 34.3349 19.9347 34.12 20.1998 34.12H21.8318L22.5998 30.28H18.2798C16.5871 30.28 15.1868 29.0283 14.9539 27.4H35.0458C34.8129 29.0283 33.4125 30.28 31.7198 30.28H27.6108Z" fill="#2E3E5C"/>
<path d="M14.9199 26.44V16.36C14.9199 15.5647 15.5646 14.92 16.3599 14.92H33.6399C34.4352 14.92 35.0799 15.5647 35.0799 16.36V26.44H14.9199Z" fill="#706FE5"/>
</svg>
