<svg width="102" height="102" viewBox="0 0 102 102" fill="none" xmlns="http://www.w3.org/2000/svg">
<g opacity="0.7" filter="url(#filter0_d_113_4)">
<circle cx="51.1665" cy="45.8637" r="34.1835" transform="rotate(-17.8082 51.1665 45.8637)" fill="#470137"/>
</g>
<path d="M89.5456 35.5458C95.3194 53.5203 85.4288 72.772 67.4544 78.5458C49.4799 84.3196 30.2282 74.429 24.4544 56.4546C18.6806 38.4801 28.5712 19.2284 46.5456 13.4546C64.5201 7.68077 83.7718 17.5714 89.5456 35.5458Z" fill="#470137"/>
<path d="M54.2418 35.6068L51.9959 46.8524L61.501 54.4708C61.5652 54.5318 61.6109 54.5996 61.6192 54.6809C61.6276 54.7621 61.5329 54.7332 61.4278 54.7924L57.1624 56.3385C56.8643 56.4465 56.6527 56.5022 56.4548 56.3632C55.7801 55.7226 55.0935 55.1075 54.4187 54.467C53.7508 53.8451 53.0388 53.218 52.3014 52.5791C51.5641 51.9402 50.8267 51.3013 50.0826 50.6438L50.0453 50.6573C49.9445 51.6 49.8064 52.5563 49.6683 53.5125C49.5302 54.4687 49.3922 55.4249 49.2659 56.3558C49.1211 57.2934 48.983 58.2496 48.8314 59.1686C48.8244 59.3819 48.6822 59.4545 48.4773 59.5288L44.3794 61.0141C44.3049 61.0412 44.2625 61.0987 44.2288 61.0055C44.1832 60.9378 44.1748 60.8565 44.1918 60.7871L46.5413 49.1878L37.4338 41.6782C37.351 41.6239 37.3053 41.5561 37.3291 41.5054C37.3461 41.436 37.4138 41.3904 37.4883 41.3634L41.7166 39.8307C41.8097 39.797 41.9096 39.7819 41.9908 39.7735C42.0789 39.7837 42.155 39.8193 42.2379 39.8736C42.8821 40.5463 43.5822 41.1987 44.3009 41.8443C45.0383 42.4832 45.7503 43.1102 46.4995 43.7238C47.2301 44.344 47.9235 44.9778 48.6049 45.637L48.6422 45.6235C48.7363 44.6621 48.8557 43.7126 48.982 42.7818C49.1082 41.8509 49.253 40.9133 49.3979 39.9757C49.5427 39.0381 49.6622 38.0887 49.7951 37.1764C49.7867 37.0952 49.797 37.0072 49.8394 36.9497C49.9004 36.8854 49.9681 36.8398 50.068 36.8246L53.9982 35.4C54.0846 35.3477 54.198 35.3698 54.2504 35.4562C54.2757 35.468 54.2655 35.556 54.2418 35.6068Z" fill="#FF61F6"/>
<path d="M69.9701 52.1386C68.5985 52.6569 67.1189 52.8771 65.6616 52.752C64.2923 52.6372 62.9997 52.0942 61.9308 51.2383C60.8297 50.3519 59.9813 49.0578 59.3669 47.3628C58.8487 45.9912 58.7097 44.5032 58.9668 43.0613C59.2357 41.594 59.8956 40.2168 60.8819 39.1006C61.9224 37.9016 63.3588 36.9805 65.2028 36.3121C65.296 36.2784 65.4263 36.2311 65.6007 36.189C65.7751 36.1468 65.9614 36.0793 66.1917 36.0169L64.0581 30.1309C64.0109 30.0005 64.0398 29.9058 64.1701 29.8585L67.9513 28.4879C68.0377 28.4355 68.1392 28.483 68.1849 28.5508C68.1916 28.5694 68.1984 28.588 68.1984 28.588L74.6259 46.3205C74.7475 46.6558 74.9011 47.0216 75.0683 47.4246C75.2473 47.8023 75.401 48.1681 75.5344 48.478C75.5816 48.6083 75.5663 48.7404 75.4561 48.8435C74.6361 49.6044 73.7197 50.2737 72.7441 50.8381C71.8549 51.3501 70.9387 51.7875 69.9701 52.1386ZM70.4452 47.7516L67.4745 39.556C67.2933 39.5795 67.1122 39.603 66.9378 39.6451C66.7262 39.7008 66.5145 39.7564 66.3096 39.8307C65.5832 40.094 64.9108 40.5063 64.3804 41.0779C63.8618 41.6241 63.4905 42.2856 63.2967 43.0302C63.103 43.7747 63.1884 44.6499 63.5395 45.6185C63.7572 46.2772 64.1053 46.8886 64.5516 47.4223C64.9201 47.8577 65.3616 48.2034 65.8691 48.4409C66.3446 48.6479 66.8675 48.7534 67.4058 48.7269C67.9695 48.7122 68.518 48.5977 69.0396 48.4087C69.319 48.3074 69.573 48.1942 69.8084 48.0878C70.0573 48.0187 70.2487 47.9072 70.4452 47.7516Z" fill="#FF61F6"/>
<defs>
<filter id="filter0_d_113_4" x="0.696018" y="0.276397" width="100.941" height="100.941" filterUnits="userSpaceOnUse" color-interpolation-filters="sRGB">
<feFlood flood-opacity="0" result="BackgroundImageFix"/>
<feColorMatrix in="SourceAlpha" type="matrix" values="0 0 0 0 0 0 0 0 0 0 0 0 0 0 0 0 0 0 127 0" result="hardAlpha"/>
<feOffset dy="4.88336"/>
<feGaussianBlur stdDeviation="8.13893"/>
<feComposite in2="hardAlpha" operator="out"/>
<feColorMatrix type="matrix" values="0 0 0 0 0.168627 0 0 0 0 0.172549 0 0 0 0 0.203922 0 0 0 0.2 0"/>
<feBlend mode="normal" in2="BackgroundImageFix" result="effect1_dropShadow_113_4"/>
<feBlend mode="normal" in="SourceGraphic" in2="effect1_dropShadow_113_4" result="shape"/>
</filter>
</defs>
</svg>
